<svg width="36" height="36" viewBox="0 0 36 36" fill="none" xmlns="http://www.w3.org/2000/svg">
<g filter="url(#filter0_ii_32286_15006)">
<g clip-path="url(#clip0_32286_15006)">
<rect width="36" height="36" rx="12" fill="#06090D"/>
<g filter="url(#filter1_f_32286_15006)" style="mix-blend-mode:color-dodge">
<ellipse cx="8.5" cy="7" rx="36.5" ry="11" fill="#0C68FF"/>
</g>
<g filter="url(#filter2_f_32286_15006)" style="mix-blend-mode:saturation">
<ellipse cx="13.5885" cy="25.323" rx="63.8213" ry="18.9356" transform="rotate(2.5063 13.5885 25.323)" fill="#0C68FF"/>
</g>
<g filter="url(#filter3_f_32286_15006)" style="mix-blend-mode:exclusion">
<ellipse cx="12.2278" cy="4.46821" rx="36.0482" ry="4.89654" transform="rotate(2.5063 12.2278 4.46821)" fill="#0C68FF"/>
</g>
<g filter="url(#filter4_f_32286_15006)">
<path d="M16.0696 25.2928H11.5845V22.4211H16.0696V25.2928Z" fill="#0C68FF" fill-opacity="0.12"/>
<path d="M11.5845 16.8579C13.6468 15.7716 16.1818 15.6728 18.3121 16.821C20.3819 17.8902 22.9767 17.9441 25.0389 16.8579V19.9209C22.9766 21.0071 20.3303 21.0019 18.3121 19.9016C16.2939 18.8012 13.6468 18.8345 11.5845 19.9209V16.8579Z" fill="#0C68FF" fill-opacity="0.12"/>
<path d="M25.0389 13.2975H11.5845V10.4258H25.0389V13.2975Z" fill="#0C68FF" fill-opacity="0.12"/>
</g>
<path d="M15.867 26H11V22.9094H15.867V26Z" fill="white"/>
<path d="M11 16.9223C13.2379 15.7532 15.9888 15.6468 18.3005 16.8825C20.5465 18.0333 23.3622 18.0913 25.6 16.9223V20.2187C23.3621 21.3877 20.4904 21.382 18.3005 20.1979C16.1104 19.0137 13.2379 19.0495 11 20.2187V16.9223Z" fill="white"/>
<path d="M25.6 13.0906H11V10H25.6V13.0906Z" fill="white"/>
</g>
<rect x="0.5" y="0.5" width="35" height="35" rx="11.5" stroke="white" stroke-opacity="0.08"/>
</g>
<defs>
<filter id="filter0_ii_32286_15006" x="0" y="-2" width="36" height="40" filterUnits="userSpaceOnUse" color-interpolation-filters="sRGB">
<feFlood flood-opacity="0" result="BackgroundImageFix"/>
<feBlend mode="normal" in="SourceGraphic" in2="BackgroundImageFix" result="shape"/>
<feColorMatrix in="SourceAlpha" type="matrix" values="0 0 0 0 0 0 0 0 0 0 0 0 0 0 0 0 0 0 127 0" result="hardAlpha"/>
<feOffset dy="-2"/>
<feGaussianBlur stdDeviation="4"/>
<feComposite in2="hardAlpha" operator="arithmetic" k2="-1" k3="1"/>
<feColorMatrix type="matrix" values="0 0 0 0 0.076656 0 0 0 0 0.458824 0 0 0 0 0.993859 0 0 0 1 0"/>
<feBlend mode="normal" in2="shape" result="effect1_innerShadow_32286_15006"/>
<feColorMatrix in="SourceAlpha" type="matrix" values="0 0 0 0 0 0 0 0 0 0 0 0 0 0 0 0 0 0 127 0" result="hardAlpha"/>
<feOffset dy="2"/>
<feGaussianBlur stdDeviation="4"/>
<feComposite in2="hardAlpha" operator="arithmetic" k2="-1" k3="1"/>
<feColorMatrix type="matrix" values="0 0 0 0 0.132398 0 0 0 0 0.508691 0 0 0 0 0.938739 0 0 0 1 0"/>
<feBlend mode="normal" in2="effect1_innerShadow_32286_15006" result="effect2_innerShadow_32286_15006"/>
</filter>
<filter id="filter1_f_32286_15006" x="-92" y="-68" width="201" height="150" filterUnits="userSpaceOnUse" color-interpolation-filters="sRGB">
<feFlood flood-opacity="0" result="BackgroundImageFix"/>
<feBlend mode="normal" in="SourceGraphic" in2="BackgroundImageFix" result="shape"/>
<feGaussianBlur stdDeviation="32" result="effect1_foregroundBlur_32286_15006"/>
</filter>
<filter id="filter2_f_32286_15006" x="-98.1772" y="-41.8018" width="223.532" height="134.25" filterUnits="userSpaceOnUse" color-interpolation-filters="sRGB">
<feFlood flood-opacity="0" result="BackgroundImageFix"/>
<feBlend mode="normal" in="SourceGraphic" in2="BackgroundImageFix" result="shape"/>
<feGaussianBlur stdDeviation="24" result="effect1_foregroundBlur_32286_15006"/>
</filter>
<filter id="filter3_f_32286_15006" x="-87.7866" y="-64.6727" width="200.029" height="138.282" filterUnits="userSpaceOnUse" color-interpolation-filters="sRGB">
<feFlood flood-opacity="0" result="BackgroundImageFix"/>
<feBlend mode="normal" in="SourceGraphic" in2="BackgroundImageFix" result="shape"/>
<feGaussianBlur stdDeviation="32" result="effect1_foregroundBlur_32286_15006"/>
</filter>
<filter id="filter4_f_32286_15006" x="7.58447" y="6.42578" width="21.4546" height="22.8671" filterUnits="userSpaceOnUse" color-interpolation-filters="sRGB">
<feFlood flood-opacity="0" result="BackgroundImageFix"/>
<feBlend mode="normal" in="SourceGraphic" in2="BackgroundImageFix" result="shape"/>
<feGaussianBlur stdDeviation="2" result="effect1_foregroundBlur_32286_15006"/>
</filter>
<clipPath id="clip0_32286_15006">
<rect width="36" height="36" rx="12" fill="white"/>
</clipPath>
</defs>
</svg>
